<svg style="display: none">

<symbol version="1.1" id="Capa_1" x="0px" y="0px" width="50px" height="50px" viewBox="0 0 430.113 430.114" style="enable-background:new 0 0 430.113 430.114;" xml:space="preserve">
<g>
    <path id="Facebook" d="M158.081,83.3c0,10.839,0,59.218,0,59.218h-43.385v72.412h43.385v215.183h89.122V214.936h59.805   c0,0,5.601-34.721,8.316-72.685c-7.784,0-67.784,0-67.784,0s0-42.127,0-49.511c0-7.4,9.717-17.354,19.321-17.354   c9.586,0,29.818,0,48.557,0c0-9.859,0-43.924,0-75.385c-25.016,0-53.476,0-66.021,0C155.878-0.004,158.081,72.48,158.081,83.3z" fill="#006DF0"/>
</g><g></g><g></g><g></g><g></g><g></g><g></g><g></g><g></g><g></g><g></g><g></g><g></g><g></g><g></g><g></g>
</symbol>	

<symbol  version="1.1" id="Capa_1" x="0px" y="0px" width="512px" height="512px" viewBox="0 0 430.117 430.117" style="enable-background:new 0 0 430.117 430.117;" xml:space="preserve">
<g>
    <path id="Twitter__x28_alt_x29_" d="M381.384,198.639c24.157-1.993,40.543-12.975,46.849-27.876   c-8.714,5.353-35.764,11.189-50.703,5.631c-0.732-3.51-1.55-6.844-2.353-9.854c-11.383-41.798-50.357-75.472-91.194-71.404   c3.304-1.334,6.655-2.576,9.996-3.691c4.495-1.61,30.868-5.901,26.715-15.21c-3.5-8.188-35.722,6.188-41.789,8.067   c8.009-3.012,21.254-8.193,22.673-17.396c-12.27,1.683-24.315,7.484-33.622,15.919c3.36-3.617,5.909-8.025,6.45-12.769   C241.68,90.963,222.563,133.113,207.092,174c-12.148-11.773-22.915-21.044-32.574-26.192   c-27.097-14.531-59.496-29.692-110.355-48.572c-1.561,16.827,8.322,39.201,36.8,54.08c-6.17-0.826-17.453,1.017-26.477,3.178   c3.675,19.277,15.677,35.159,48.169,42.839c-14.849,0.98-22.523,4.359-29.478,11.642c6.763,13.407,23.266,29.186,52.953,25.947   c-33.006,14.226-13.458,40.571,13.399,36.642C113.713,320.887,41.479,317.409,0,277.828   c108.299,147.572,343.716,87.274,378.799-54.866c26.285,0.224,41.737-9.105,51.318-19.39   C414.973,206.142,393.023,203.486,381.384,198.639z" fill="#006DF0"/>
</g><g></g><g></g><g></g><g></g><g></g><g></g><g></g><g></g><g></g><g></g><g></g><g></g><g></g><g></g><g></g>
</symbol>


<symbol version="1.1" id="Capa_1" xmlns="http://www.w3.org/2000/svg" xmlns:xlink="http://www.w3.org/1999/xlink" x="0px" y="0px"
     width="430.117px" height="430.117px" viewBox="0 0 430.117 430.117" style="enable-background:new 0 0 430.117 430.117;"
     xml:space="preserve">
<g>
    <path id="LinkedIn" d="M430.117,261.543V420.56h-92.188V272.193c0-37.271-13.334-62.707-46.703-62.707
        c-25.473,0-40.632,17.142-47.301,33.724c-2.432,5.928-3.058,14.179-3.058,22.477V420.56h-92.219c0,0,1.242-251.285,0-277.32h92.21
        v39.309c-0.187,0.294-0.43,0.611-0.606,0.896h0.606v-0.896c12.251-18.869,34.13-45.824,83.102-45.824
        C384.633,136.724,430.117,176.361,430.117,261.543z M52.183,9.558C20.635,9.558,0,30.251,0,57.463
        c0,26.619,20.038,47.94,50.959,47.94h0.616c32.159,0,52.159-21.317,52.159-47.94C103.128,30.251,83.734,9.558,52.183,9.558z
         M5.477,420.56h92.184v-277.32H5.477V420.56z"/></g><g></g><g></g><g></g><g></g><g></g><g></g><g></g><g></g><g></g><g></g><g></g><g></g><g></g><g></g><g></g>
</symbol>

<symbol version="1.1" id="Capa_1" x="0px" y="0px" width="512px" height="512px" viewBox="0 0 90 90" style="enable-background:new 0 0 90 90;" xml:space="preserve">
<g>
    <path id="Github__x28_alt_x29_" d="M65.709,10.5c1.17,2.657,1.928,7.07,0.797,10.301c4.625,3.949,6.215,13.549,3.982,21.394   C77.08,42.698,84.932,41.953,90,43.976c-4.738-0.609-11.209-1.804-17.32-1.388c-1.158,0.079-2.873-0.044-2.789,1.585   c7.074,0.555,14.104,1.16,19.912,2.973c-5.761-0.941-12.754-2.375-19.912-2.574c-2.957,5.835-8.908,8.703-17.123,9.307   c0.883,1.922,2.574,2.653,2.987,5.744c0.616,4.618-0.964,11.381,0.595,14.459c0.748,1.475,1.967,1.514,2.789,2.775   c-2.012,2.381-7-0.268-7.568-2.775c-0.973-4.295,1.482-10.953-1.192-13.865c0.188,4.685-1.108,11.264,0.199,15.449   c0.515,1.646,2.002,2.281,1.593,3.766c-9.352,0.949-5.443-12.104-6.972-19.81c-1.411,0.101-0.791,2.113-0.796,2.972   c-0.04,7.524,1.54,17.844-6.57,16.838c-0.237-1.582,1.088-2.119,1.593-3.563c1.479-4.233-0.277-10.542,0.401-15.651   c-3.095,2.334,0.325,10.48-1.593,14.657c-1.105,2.404-4.666,3.45-7.367,2.377c0.352-1.79,2.2-1.501,2.984-3.169   c1.096-2.324,0.008-5.674,0.399-9.111c-5.729,1.144-10.173-0.166-12.348-3.764c-0.973-1.615-1.214-3.52-2.39-4.951   c-1.17-1.432-3.04-1.625-3.582-3.563c7.095-1.708,7.367,7.302,13.739,7.524c1.954,0.071,2.97-0.563,4.778-0.988   c0.506-2.272,1.589-3.967,3.186-5.153c-7.929-1.085-14.477-3.554-17.522-9.504c-7.208,0.354-13.804,1.317-19.913,2.771   c5.545-2.014,12.384-2.736,19.715-2.973c-0.432-2.596-4.219-1.882-6.57-1.782C8.973,42.781,3.473,43.324,0,43.976   c5.034-1.795,12.098-1.571,18.918-1.585c-2.086-6.54-1.363-16.929,3.186-20.798C20.815,18.344,21.215,13.03,22.9,10.5   c5.079,0.228,8.159,2.443,11.35,4.557c3.957-1.125,8.118-1.685,13.54-1.387c2.28,0.126,4.651,1.151,6.369,0.989   c1.685-0.158,3.542-2.049,5.178-2.771C61.468,10.947,63.271,10.588,65.709,10.5z" fill="#006DF0"/></g><g></g><g></g><g></g><g></g><g></g><g></g><g></g><g></g><g></g><g></g><g></g><g></g><g></g><g></g><g></g>
</symbol>

<symbol version="1.1" id="work" x="0px" y="0px" width="512px" height="512px" viewBox="0 0 430.123 430.123" style="enable-background:new 0 0 430.123 430.123;" xml:space="preserve">
<g>
	<path id="Readernaut" d="M15.544,173.347c10.041-34.065,37.11-40.359,41.917-41.22C84.075,69.46,146.892,25.419,220.158,25.419   c73.399,0,136.32,44.211,162.834,107.062c0.761,0.185,1.624,0.401,2.679,0.717V48.953c-9.408-3.799-16.045-12.9-16.045-23.534   C369.626,11.383,381.182,0,395.444,0c14.253,0,25.8,11.388,25.8,25.419c0,12.034-8.485,22.084-19.882,24.729v90.903   c8.326,6.04,17.058,15.98,21.87,32.296c0,0,8.652,41.796-5.517,52.344c0,0-6.926,9.744-27.004,17.259   c-1.559,5.871-3.389,11.64-5.525,17.249c-7.431,1.167-15.514,2.596-23.994,4.341c12.316-21.39,19.341-45.854,19.341-71.852   c0-83.676-72.499-151.505-161.943-151.505c-89.419,0-161.917,67.829-161.917,151.505c0,26.721,7.404,51.802,20.379,73.593   c-7.365-1.644-14.438-3.039-21.172-4.248c-2.38-5.987-4.369-12.162-6.074-18.453c-0.11-0.037-0.187-0.056-0.292-0.094   c-21.233-7.584-28.46-17.805-28.46-17.805C6.889,215.152,15.544,173.347,15.544,173.347z M215.062,360.13   c-62.032-74.72-215.059-81.469-215.059-81.469v57.032c138.547,0.644,215.059,94.429,215.059,94.429v-0.009   c0,0,76.512-93.78,215.059-94.425v-57.036C430.12,278.653,277.105,285.411,215.062,360.13z M361.394,218.984   c0,17.843-3.389,34.9-9.521,50.629c-47.259,10.664-104.411,31.134-136.811,70.146v0.004   c-31.045-37.401-84.915-57.778-130.965-68.797c-6.443-16.097-10.046-33.617-10.046-51.978c0-78.16,64.331-141.515,143.671-141.515   C297.071,77.469,361.394,140.829,361.394,218.984z M149.928,196.568c0-8.77-7.217-15.87-16.11-15.87   c-8.903,0-16.12,7.101-16.12,15.87s7.213,15.873,16.12,15.873C142.71,212.441,149.928,205.337,149.928,196.568z M188.188,156.434   c0-13.5-11.122-24.444-24.831-24.444c-13.703,0-24.808,10.944-24.808,24.444c0,13.497,11.105,24.446,24.808,24.446   C177.072,180.884,188.188,169.936,188.188,156.434z" fill="#006DF0"/></g><g></g><g></g><g></g><g></g><g></g><g></g><g></g><g></g><g></g><g></g><g></g><g></g><g></g><g></g><g></g>
</symbol>


<symbol version="1.1" id="learn" x="0px" y="0px" width="512px" height="512px" viewBox="0 0 512 512" style="enable-background:new 0 0 512 512;" xml:space="preserve">
<g>
	<path d="M240,512L0,448V64l240,64V512z M512,64l-240,64v384l240-64V64z M256,99.156l192-51.219V0L256,96L64,0v47.938L256,99.156z" fill="#006DF0"/></g><g></g><g></g><g></g><g></g><g></g><g></g><g></g><g></g><g></g><g></g><g></g><g></g><g></g><g></g><g></g>
</symbol>


</svg>